<?xml version="1.0" encoding="UTF-8"?>
<svg id="Layer_3" data-name="Layer 3" xmlns="http://www.w3.org/2000/svg" viewBox="0 0 403.4 375.54">
  <defs>
    <style>
      .cls-1 {
        fill: #5733ea;
      }

      .cls-2 {
        fill: #00b7ff;
      }

      .cls-3 {
        fill: #00fff8;
      }
    </style>
  </defs>
  <path class="cls-1" d="M191.22,188.1c-3.77-1.11-6.73-2.59-8.74-3.75-6.64,12.32-13.27,24.64-19.91,36.95,2.57,1.56,5.93,3.47,9.95,5.42.08.04.17.08.26.12.01-.01.01-.02.02-.03,6.23-12.87,12.46-25.76,18.69-38.63-.11-.03-.2-.06-.27-.08ZM173.84,227.35c.06.03.12.06.18.09.06.02.11.05.17.07-.12-.05-.23-.1-.35-.16ZM271.13,173.73c-10.91,3.6-20.79,6.67-29.64,9.2h-.01c.38,2.45.76,4.89,1.14,7.34,1.56,10.12,3.13,20.23,4.7,30.35.72,4.65,1.44,9.3,2.16,13.95,11.23-2.17,23.95-5.65,38.16-10.42l-16.51-50.42ZM288.66,194.93c-.56-10.34-2.08-20.06-4.56-29.14-3.12-11.36-7.3-21.28-12.56-29.77-5.25-8.49-11.33-15.37-18.23-20.65-6.9-5.26-14.4-8.75-22.51-10.43-8.12-1.68-16.64-1.3-25.57,1.15-9.08,2.49-16.83,6.16-23.23,11-6.41,4.85-11.88,10.42-16.42,16.71-4.55,6.29-8.41,12.85-11.59,19.66-3.18,6.81-6.09,13.43-8.72,19.84-2.84,7.46-5.67,13.49-8.48,18.08-2.81,4.59-6.11,8.14-9.9,10.65-3.79,2.5-8.57,4.54-14.32,6.12l14.01,51.1c10.75-2.95,19.79-7.05,27.14-12.32,7.2-5.17,13.55-11.86,19.06-20.08h0s.01-.03.02-.04c6.23-12.87,12.46-25.76,18.69-38.63h.01c2.08-4.55,4.24-8.66,6.47-12.35,3.25-5.36,6.62-9.7,10.1-13.02,3.49-3.31,6.9-5.43,10.23-6.34,4.54-1.25,8.74-.2,12.58,3.14,3.85,3.34,6.97,9.41,9.38,18.19.44,1.61.83,3.24,1.17,4.88.01.03.02.07.03.1,0,.03,0,.05.01.08.01.02.02.04.02.07h-.01c.38,2.45.76,4.89,1.14,7.34,1.56,10.12,3.13,20.23,4.7,30.35l40.32,3.53c1.23-9.13,1.58-18.87,1.02-29.22ZM112.57,208.15c-1.21.33-1.63,2.93-1.28,7.79.36,4.87,1.58,11.09,3.65,18.66,2.16,7.88,4.33,14.04,6.53,18.48,2.19,4.44,3.9,6.5,5.11,6.17l-14.01-51.1Z"/>
  <path class="cls-3" d="M174.19,227.51c.06.03.12.06.18.09-.12-.05-.24-.11-.35-.16-.06-.03-.12-.06-.18-.09.12.06.23.11.35.16Z"/>
  <path class="cls-3" d="M191.7,188.23s.03.01.04.02c-.02,0-.03-.01-.04-.01h0Z"/>
  <path class="cls-3" d="M241.46,182.78s-.02-.07-.03-.1h.01s.01.07.02.1Z"/>
  <path class="cls-2" d="M191.74,188.25s-.03-.01-.04-.01c-.08-.02-.14-.04-.2-.06h-.01s.01-.01.01-.01c.06.02.13.04.2.06.01.01.03.01.04.02Z"/>
  <path class="cls-3" d="M191.49,188.18c-6.24,12.89-12.47,25.78-18.71,38.66,1.53.75,3.58,1.7,6.04,2.73,2,.84,5.23,2.18,9.61,3.54,1.34.42,4.15,1.26,7.82,2.07,1.33.3,4.78,1.04,9.35,1.63,1.48.19,5.83.72,11.68.88,3.04.08,11.33.2,22.12-1.33,4.17-.59,7.62-1.27,10.09-1.81-2.68-17.3-5.36-34.6-8.04-51.9-2.09.62-5,1.47-8.49,2.41-4.84,1.31-7.33,1.98-10.83,2.68-1.6.32-4.9.95-9.08,1.43-3.47.4-5.43.45-6.64.46-.78,0-2.17,0-4.4-.15-2.57-.17-6.14-.53-10.52-1.32Z"/>
  <path class="cls-2" d="M191.49,188.17c-6.24,12.89-12.48,25.79-18.71,38.68,1.93.93,3.64,1.69,5.08,2.31,0,0,3.36,1.44,6.25,2.49.45.16.98.35.98.35.25.09.56.2.75.27,1.43.5,2.71.9,2.87.95.12.04.43.13.9.27.9.26,2.26.65,4.07,1.12,2.67-15.04,5.34-30.07,8.02-45.11-1.3-.1-3.32-.28-5.52-.57-1.71-.22-2.93-.43-3.25-.49-.59-.1-1.08-.2-1.44-.27Z"/>
  <rect class="cls-1" x="230.48" y="242.99" width="10.54" height="69.68" transform="translate(372.41 -59.95) rotate(62.34)"/>
</svg>